<mxfile host="app.diagrams.net" modified="2024-04-18T01:18:09.400Z" agent="Mozilla/5.0 (Windows NT 10.0; Win64; x64) AppleWebKit/537.36 (KHTML, like Gecko) Chrome/123.0.0.0 Safari/537.36" etag="mzuho6sYimcJ-gQM2Xn6" version="24.2.5" type="device">
  <diagram name="PÃ¡gina-1" id="RHD8lbcqWP3h6MlTL_2r">
    <mxGraphModel dx="2074" dy="1907" grid="1" gridSize="10" guides="1" tooltips="1" connect="1" arrows="1" fold="1" page="1" pageScale="1" pageWidth="827" pageHeight="1169" math="0" shadow="0">
      <root>
        <mxCell id="0" />
        <mxCell id="1" parent="0" />
        <mxCell id="sugxCGxEP4-Ke6VgAg5B-1" value="usuario" style="swimlane;childLayout=stackLayout;horizontal=1;startSize=50;horizontalStack=0;rounded=1;fontSize=14;fontStyle=0;strokeWidth=2;resizeParent=0;resizeLast=1;shadow=0;dashed=0;align=center;arcSize=4;whiteSpace=wrap;html=1;" parent="1" vertex="1">
          <mxGeometry x="319" y="30" width="190" height="120" as="geometry" />
        </mxCell>
        <mxCell id="sugxCGxEP4-Ke6VgAg5B-2" value="+ id_usuario (numeric (10))&amp;nbsp; &amp;nbsp;&amp;nbsp;&lt;b&gt;PK&lt;/b&gt;&lt;br&gt;+ nome (varchar (45))" style="align=left;strokeColor=none;fillColor=none;spacingLeft=4;fontSize=12;verticalAlign=top;resizable=0;rotatable=0;part=1;html=1;" parent="sugxCGxEP4-Ke6VgAg5B-1" vertex="1">
          <mxGeometry y="50" width="190" height="70" as="geometry" />
        </mxCell>
        <mxCell id="sugxCGxEP4-Ke6VgAg5B-4" value="pedido" style="swimlane;childLayout=stackLayout;horizontal=1;startSize=50;horizontalStack=0;rounded=1;fontSize=14;fontStyle=0;strokeWidth=2;resizeParent=0;resizeLast=1;shadow=0;dashed=0;align=center;arcSize=4;whiteSpace=wrap;html=1;" parent="1" vertex="1">
          <mxGeometry x="319" y="220" width="190" height="150" as="geometry" />
        </mxCell>
        <mxCell id="sugxCGxEP4-Ke6VgAg5B-5" value="+ id_pedido (numeric (10))&amp;nbsp; &amp;nbsp; &amp;nbsp; &lt;b&gt;PK&lt;/b&gt;&lt;br&gt;+ id_produto (numeric (10))&lt;div&gt;+ valor (decimal (10,2))&lt;/div&gt;&lt;div&gt;+ data_compra (numeric (8))&lt;/div&gt;&lt;div&gt;+ id_usuario&amp;nbsp; &amp;nbsp; &amp;nbsp; &amp;nbsp; &amp;nbsp; &amp;nbsp; &amp;nbsp; &amp;nbsp; &amp;nbsp; &amp;nbsp; &amp;nbsp; &amp;nbsp; &amp;nbsp; &amp;nbsp; &amp;nbsp;&lt;b&gt;FK&lt;/b&gt;&lt;/div&gt;" style="align=left;strokeColor=none;fillColor=none;spacingLeft=4;fontSize=12;verticalAlign=top;resizable=0;rotatable=0;part=1;html=1;" parent="sugxCGxEP4-Ke6VgAg5B-4" vertex="1">
          <mxGeometry y="50" width="190" height="100" as="geometry" />
        </mxCell>
        <mxCell id="sugxCGxEP4-Ke6VgAg5B-6" style="edgeStyle=orthogonalEdgeStyle;rounded=0;orthogonalLoop=1;jettySize=auto;html=1;" parent="1" source="sugxCGxEP4-Ke6VgAg5B-2" target="sugxCGxEP4-Ke6VgAg5B-4" edge="1">
          <mxGeometry relative="1" as="geometry" />
        </mxCell>
        <mxCell id="sugxCGxEP4-Ke6VgAg5B-11" value="1" style="text;html=1;align=center;verticalAlign=middle;whiteSpace=wrap;rounded=0;" parent="1" vertex="1">
          <mxGeometry x="419" y="150" width="20" height="30" as="geometry" />
        </mxCell>
        <mxCell id="sugxCGxEP4-Ke6VgAg5B-12" value="N" style="text;html=1;align=center;verticalAlign=middle;whiteSpace=wrap;rounded=0;" parent="1" vertex="1">
          <mxGeometry x="419" y="180" width="20" height="30" as="geometry" />
        </mxCell>
        <mxCell id="LyN8EOAavKn_VzGDE6W--1" value="vertical_logistica_database" style="swimlane;whiteSpace=wrap;html=1;" vertex="1" parent="1">
          <mxGeometry x="210" y="-20" width="450" height="430" as="geometry" />
        </mxCell>
      </root>
    </mxGraphModel>
  </diagram>
</mxfile>
